<svg xmlns="http://www.w3.org/2000/svg" xmlns:xlink="http://www.w3.org/1999/xlink" viewBox="0 0 288 288"><defs><style>.cls-1{fill:#fd248a;stroke-width:20px;}.cls-1,.cls-2{stroke:#000;stroke-miterlimit:10;}.cls-2{stroke-width:8px;fill:url(#linear-gradient);}</style><linearGradient id="linear-gradient" x1="78.98" y1="107.81" x2="111.44" y2="2.46" gradientUnits="userSpaceOnUse"><stop offset="0.02" stop-color="#fff" stop-opacity="0.1"/><stop offset="0.41" stop-color="#fff" stop-opacity="0.4"/><stop offset="0.71" stop-color="#fff" stop-opacity="0.25"/><stop offset="0.98" stop-color="#fff" stop-opacity="0.1"/></linearGradient></defs><title>magic-trace-for light mode</title><g id="Layer_5" data-name="Layer 5"><circle class="cls-1" cx="147.34" cy="140.56" r="120.15"/></g><g id="Layer_8" data-name="Layer 8"><path d="M276.48,17.54l-89.39,87.27-80.74,86.13a31.92,31.92,0,0,0-5.06,9.48c-2.13,6-5.07,8.66-5.07,8.66l-4.58,5.23s-7.51,4.25-9.8,5.23-7.36,6.86-5.4,11.6c0,0-2.45,3.92-6.53,3.43s-23.7,19.78-23.7,19.78-5.23,5.23-5.39,10.79S31,274.29,31,274.29l-1.31,2.12S25.78,279,25,277.72s-1.47,0-1.47,0-11.6-4.25-13.23-12.09l1.3-2.95s-1.47-7.19,6.87-11.44c0,0,.49-2.94,2.94-2,0,0,2-3.27,4.74-2.94,0,0,2.94-3.92,3.59-3.59s-.65-.33-.65-.33,5.23-1.15,7.84-4.09,9.16-11.6,8.67-13.07S48.83,224,48.83,224s1.14,2.13,2.12.49,15.36-17.16,15.36-17.16a7.85,7.85,0,0,1,4.09-4.08c2.94-1.15,8.33-10,8.33-10a9.55,9.55,0,0,0,5.4-5.4c1.3-3.92,6.86-2.12,6.86-2.12s3.92-1.15,5.39-3.11,57.2-53.93,60.47-57.52,4.42-2.62,13.73-12.1S272.89,14.43,272.89,14.43,277.63,11.49,276.48,17.54Z"/></g><g id="Layer_7" data-name="Layer 7"><path d="M173.75,146.79a2.09,2.09,0,0,0,1,1.41c3.26.93,4.76,3.32,5.66,6.33a2.16,2.16,0,0,0,1.08,1.36c3,.93,4.36,3.16,5.18,5.91,2.29,7.69,5.77,14.71,11.6,20.35,3.57,3.47,7.15,7,11,10.12,10.07,8.23,19.56,17,27.49,27.38a57.67,57.67,0,0,1,11.16,27.16c.87,5.93,3.83,9.83,9.28,12.06a51.45,51.45,0,0,1,6,2.81,4.57,4.57,0,0,1,2.41,2.49c.58,1.88.16,3.95-1.32,4.88a7.31,7.31,0,0,0-2.71,2.67c-1.5,3.1-4.12,4.72-7.1,5.89a4.49,4.49,0,0,1-2.61-.09c-4.05-1.13-5-4.58-5.41-8a13.58,13.58,0,0,0-4.22-8.76c-1.3-1.2-2.76-2.24-4.27-3.45.28.34-3.13-1-3.55-1.16a62.84,62.84,0,0,1-8.55-3.27c-6.25-3.28-11.4-8-16.15-13.18-8.38-9.12-15.06-19.43-21-30.22-6.51-11.75-14.63-21.79-27.4-27.22-2.31-1-3.42-3-4.13-5.36-.19-.61-.58-1.44-1.09-1.64a7.77,7.77,0,0,1-5.29-6.33,1.82,1.82,0,0,0-.95-1.22c-3.48-1.23-5.45-3.61-5.6-7.22a22.39,22.39,0,0,1-3-1c-2.17-1.09-4-4.63-2.84-5.62,1.89-1.61,1-2.79,0-4.21a3.33,3.33,0,0,1-.47-1.38c-.34-2.18-.43-4.41-1-6.53-1.94-7.55-6.74-12.57-14-15.32-3-1.15-3.49-3.71-1-5.75,3.33-2.76,6.64-5.53,10-8.21.79-.63,2.22-1.52,2.71-1.22a5.81,5.81,0,0,1,2.69,3.14c1.82,8.26,6.3,14.15,14.37,17.08,1.81.65,3.76,1,5.5,1.78,1.2.54,1.95,1.43,3.51.36.75-.51,2.63,0,3.64.61,2.21,1.36,3.64,3.39,3.15,6.29A7.49,7.49,0,0,1,173.75,146.79Z"/></g><g id="Layer_3" data-name="Layer 3"><circle class="cls-2" cx="90.25" cy="71.25" r="55.1"/></g></svg>